<?xml version="1.0" encoding="UTF-8" standalone="no"?>
<!DOCTYPE svg PUBLIC "-//W3C//DTD SVG 1.1//EN"
 "http://www.w3.org/Graphics/SVG/1.1/DTD/svg11.dtd">
<!-- Generated by graphviz version 2.40.1 (20161225.0304)
 -->
<!-- Title: dependencies Pages: 1 -->
<svg width="504pt" height="287pt"
 viewBox="0.00 0.00 504.00 287.00" xmlns="http://www.w3.org/2000/svg" xmlns:xlink="http://www.w3.org/1999/xlink">
<g id="graph0" class="graph" transform="scale(1 1) rotate(0) translate(4 283)">
<title>dependencies</title>
<polygon fill="#ffffff" stroke="transparent" points="-4,4 -4,-283 500,-283 500,4 -4,4"/>
<text text-anchor="start" x="227.0091" y="-42.4" font-family="sans-serif" font-weight="bold" font-size="14.00" fill="#000000">Legend</text>
<polygon fill="#ffffb3" stroke="transparent" points="14,-10 14,-30 34,-30 34,-10 14,-10"/>
<text text-anchor="start" x="37.629" y="-15.4" font-family="sans-serif" font-size="14.00" fill="#000000"> &#160;Declarations</text>
<polygon fill="#8dd3c7" stroke="transparent" points="127,-10 127,-30 147,-30 147,-10 127,-10"/>
<text text-anchor="start" x="150.7251" y="-15.4" font-family="sans-serif" font-size="14.00" fill="#000000"> &#160;Module</text>
<polygon fill="#80b1d3" stroke="transparent" points="213,-10 213,-30 233,-30 233,-10 213,-10"/>
<text text-anchor="start" x="236.7812" y="-15.4" font-family="sans-serif" font-size="14.00" fill="#000000"> &#160;Bootstrap</text>
<polygon fill="#fdb462" stroke="transparent" points="310,-10 310,-30 330,-30 330,-10 310,-10"/>
<text text-anchor="start" x="333.6732" y="-15.4" font-family="sans-serif" font-size="14.00" fill="#000000"> &#160;Providers</text>
<polygon fill="#fb8072" stroke="transparent" points="406,-10 406,-30 426,-30 426,-10 406,-10"/>
<text text-anchor="start" x="429.7258" y="-15.4" font-family="sans-serif" font-size="14.00" fill="#000000"> &#160;Exports</text>
<g id="clust1" class="cluster">
<title>cluster_AppModule</title>
<polygon fill="none" stroke="#000000" stroke-dasharray="1,5" points="110,-146 110,-271 370,-271 370,-146 110,-146"/>
</g>
<g id="clust3" class="cluster">
<title>cluster_AppModule_imports</title>
<polygon fill="none" stroke="#000000" points="256,-154 256,-206 362,-206 362,-154 256,-154"/>
</g>
<g id="clust6" class="cluster">
<title>cluster_AppModule_providers</title>
<polygon fill="none" stroke="#000000" points="118,-154 118,-206 248,-206 248,-154 118,-154"/>
</g>
<g id="clust7" class="cluster">
<title>cluster_HotelModule</title>
<polygon fill="none" stroke="#000000" stroke-dasharray="1,5" points="232,-70 232,-138 386,-138 386,-70 232,-70"/>
</g>
<g id="clust12" class="cluster">
<title>cluster_HotelModule_providers</title>
<polygon fill="none" stroke="#000000" points="240,-78 240,-130 378,-130 378,-78 240,-78"/>
</g>
<!-- HotelModule -->
<g id="node1" class="node">
<title>HotelModule</title>
<polygon fill="#8dd3c7" stroke="#000000" points="354.1529,-198 351.1529,-202 330.1529,-202 327.1529,-198 263.8471,-198 263.8471,-162 354.1529,-162 354.1529,-198"/>
<text text-anchor="middle" x="309" y="-175.8" font-family="Times,serif" font-size="14.00" fill="#000000">HotelModule</text>
</g>
<!-- AppModule -->
<g id="node2" class="node">
<title>AppModule</title>
<polygon fill="#8dd3c7" stroke="#000000" points="287.6571,-263 284.6571,-267 263.6571,-267 260.6571,-263 204.3429,-263 204.3429,-227 287.6571,-227 287.6571,-263"/>
<text text-anchor="middle" x="246" y="-240.8" font-family="Times,serif" font-size="14.00" fill="#000000">AppModule</text>
</g>
<!-- HotelModule&#45;&gt;AppModule -->
<g id="edge1" class="edge">
<title>HotelModule&#45;&gt;AppModule</title>
<path fill="none" stroke="#000000" d="M275.751,-198.1061C275.751,-198.1061 275.751,-216.991 275.751,-216.991"/>
<polygon fill="#000000" stroke="#000000" points="272.2511,-216.9909 275.751,-226.991 279.2511,-216.991 272.2511,-216.9909"/>
</g>
<!-- AppService -->
<g id="node3" class="node">
<title>AppService</title>
<ellipse fill="#fdb462" stroke="#000000" cx="183" cy="-180" rx="56.7406" ry="18"/>
<text text-anchor="middle" x="183" y="-175.8" font-family="Times,serif" font-size="14.00" fill="#000000">AppService</text>
</g>
<!-- AppService&#45;&gt;AppModule -->
<g id="edge2" class="edge">
<title>AppService&#45;&gt;AppModule</title>
<path fill="none" stroke="#000000" d="M221.896,-193.1537C221.896,-193.1537 221.896,-216.6938 221.896,-216.6938"/>
<polygon fill="#000000" stroke="#000000" points="218.3961,-216.6938 221.896,-226.6938 225.3961,-216.6939 218.3961,-216.6938"/>
</g>
<!-- HotelService -->
<g id="node4" class="node">
<title>HotelService</title>
<ellipse fill="#fdb462" stroke="#000000" cx="309" cy="-104" rx="61.3916" ry="18"/>
<text text-anchor="middle" x="309" y="-99.8" font-family="Times,serif" font-size="14.00" fill="#000000">HotelService</text>
</g>
<!-- HotelService&#45;&gt;HotelModule -->
<g id="edge3" class="edge">
<title>HotelService&#45;&gt;HotelModule</title>
<path fill="none" stroke="#000000" d="M309,-122.0109C309,-122.0109 309,-151.855 309,-151.855"/>
<polygon fill="#000000" stroke="#000000" points="305.5001,-151.8549 309,-161.855 312.5001,-151.855 305.5001,-151.8549"/>
</g>
</g>
</svg>
